# xmcd
#
# Track frame offsets:
#   150
#   14265
#   25468
#   42237
#   55846
#   72392
#   90302
#   102064
#   116196
#   135352
#   147658
#   161743
#   180810
#   193322
#   207558
#   226508
#   244130
#   265448
#   306474
#   324397
#   338106
#
# Disc length: 4786 seconds
#
# Revision: 1
# Processed by: cddbd v1.5.1PL0 Copyright (c) Steve Scherf et al.
# Submitted via: Media_Universe 3.0
#
DISCID=2f12b015
DTITLE=Norah Jones - Come Away With Me 
DYEAR=2002
DGENRE=Blues
TTITLE0=Don't Know Why
TTITLE1=Seven Years
TTITLE2=Cold Cold Heart
TTITLE3=Feelin' In The Same Way
TTITLE4=Norah Jones - Come Away Witk Me - 03 - Cold Cold Heart
TTITLE5=Shoot The Moon
TTITLE6=Turn Me On
TTITLE7=LONESTAR
TTITLE8=I've Got To See YowðAgain
TTITLE9=Painter Song
TTITLE10=One Flight Down
TTITLE11=Nightingale
TTITLE12=The Long Day Is Over
TTITLE13=The Nearness Of You
TTITLE14=Nora Jones -  more than this
TTITLE15=Peace
TTITLE16=NorahJones-HouseofBlues041602_Crazy
TTITLE17=Tennesee Waltz
TTITLE18=What Would I Do
TTITLE19=Ain't Gonna Ask You
TTITLE20=It's Not Good-Bye             
EXTD=EP
EXTT0=
EXTT1=
EXTT2=
EXTT3=
EXTT4=
EXTT5=
EXTT6=
EXTT7=
EXTT8=
EXTT9=
EXTT10=
EXTT11=
EXTT12=
EXTT13=
EXTT14=
EXTT15=
EXTT16=
EXTT17=
EXTT18=
EXTT19=
EXTT20=
PLAYORDER=
